<svg preserveAspectRatio="xMidYMid meet" xmlns="http://www.w3.org/2000/svg" viewBox="0 0 1555 1167">

<rect x="44" y="44" width="406" height="1080" rx="22" fill="#e5ecfd" stroke="#2563eb" stroke-width="2.0" opacity="1.0"/><rect x="64" y="60" width="133" height="52" rx="12" fill="#2563eb" stroke="#1e51c1" stroke-width="1.5" opacity="1.0"/><text x="130" y="98" text-anchor="middle" font-family="'XCharter', 'Charter', 'Liberation Serif', serif" font-size="34" font-weight="700" fill="#ffffff">Offline</text>
<rect x="514" y="44" width="997" height="711" rx="22" fill="#fcebe2" stroke="#ea580c" stroke-width="2.0" opacity="1.0"/><rect x="534" y="60" width="135" height="52" rx="12" fill="#ea580c" stroke="#c0480a" stroke-width="1.5" opacity="1.0"/><text x="601" y="98" text-anchor="middle" font-family="'XCharter', 'Charter', 'Liberation Serif', serif" font-size="34" font-weight="700" fill="#ffffff">Python</text>
<rect x="566" y="170" width="893" height="397" rx="22" fill="#e3f4e9" stroke="#16a34a" stroke-width="2.0" opacity="1.0"/><rect x="586" y="186" width="105" height="52" rx="12" fill="#16a34a" stroke="#12863d" stroke-width="1.5" opacity="1.0"/><text x="639" y="224" text-anchor="middle" font-family="'XCharter', 'Charter', 'Liberation Serif', serif" font-size="34" font-weight="700" fill="#ffffff">GPU</text>
<rect x="514" y="819" width="997" height="305" rx="22" fill="#fbe5ef" stroke="#db2777" stroke-width="2.0" opacity="1.0"/><rect x="534" y="835" width="59" height="52" rx="12" fill="#db2777" stroke="#b42062" stroke-width="1.5" opacity="1.0"/><text x="564" y="872" text-anchor="middle" font-family="'XCharter', 'Charter', 'Liberation Serif', serif" font-size="34" font-weight="700" fill="#ffffff">C</text>
<rect x="96" y="170" width="302" height="127" rx="12" fill="#ffffff" stroke="#2563eb" stroke-width="2.5" opacity="1.0"/><text x="247" y="223" text-anchor="middle" font-family="'XCharter', 'Charter', 'Liberation Serif', serif" font-size="34" font-weight="400" fill="#1f2937">Waymo, nuPlan,</text><text x="247" y="267" text-anchor="middle" font-family="'XCharter', 'Charter', 'Liberation Serif', serif" font-size="34" font-weight="400" fill="#1f2937">CARLA</text>
<rect x="96" y="557" width="302" height="127" rx="12" fill="#ffffff" stroke="#2563eb" stroke-width="2.5" opacity="1.0"/><text x="247" y="611" text-anchor="middle" font-family="'XCharter', 'Charter', 'Liberation Serif', serif" font-size="34" font-weight="400" fill="#1f2937">Preprocessing &amp;</text><text x="247" y="654" text-anchor="middle" font-family="'XCharter', 'Charter', 'Liberation Serif', serif" font-size="34" font-weight="400" fill="#1f2937">Verification</text>
<rect x="96" y="945" width="302" height="127" rx="12" fill="#ffffff" stroke="#2563eb" stroke-width="2.5" opacity="1.0"/><text x="247" y="998" text-anchor="middle" font-family="'XCharter', 'Charter', 'Liberation Serif', serif" font-size="34" font-weight="400" fill="#1f2937">terrabin</text><text x="247" y="1041" text-anchor="middle" font-family="'XCharter', 'Charter', 'Liberation Serif', serif" font-size="34" font-weight="400" fill="#1f2937">Map / Log</text>
<rect x="618" y="296" width="187" height="219" rx="12" fill="#ffffff" stroke="#16a34a" stroke-width="2.5" opacity="1.0"/><text x="712" y="395" text-anchor="middle" font-family="'XCharter', 'Charter', 'Liberation Serif', serif" font-size="34" font-weight="400" fill="#1f2937">Learning</text><text x="712" y="439" text-anchor="middle" font-family="'XCharter', 'Charter', 'Liberation Serif', serif" font-size="34" font-weight="400" fill="#1f2937">Update</text>
<rect x="999" y="296" width="288" height="84" rx="12" fill="#ffffff" stroke="#16a34a" stroke-width="2.5" opacity="1.0"/><text x="1143" y="349" text-anchor="middle" font-family="'XCharter', 'Charter', 'Liberation Serif', serif" font-size="34" font-weight="400" fill="#1f2937">Policy Network</text>
<rect x="999" y="432" width="129" height="84" rx="12" fill="#ffffff" stroke="#16a34a" stroke-width="2.5" opacity="1.0"/><text x="1064" y="485" text-anchor="middle" font-family="'XCharter', 'Charter', 'Liberation Serif', serif" font-size="34" font-weight="400" fill="#1f2937">GAE</text>
<rect x="566" y="619" width="893" height="84" rx="14" fill="#dbefed" stroke="#0d9488" stroke-width="2.5" opacity="1.0"/>
<text x="1013" y="673" text-anchor="middle" font-family="'XCharter', 'Charter', 'Liberation Serif', serif" font-size="36" font-weight="700" fill="#0b7e74">numpy Buffers</text>
<rect x="566" y="945" width="893" height="127" rx="12" fill="#ffffff" stroke="#db2777" stroke-width="2.5" opacity="1.0"/><text x="1013" y="1001" text-anchor="middle" font-family="'XCharter', 'Charter', 'Liberation Serif', serif" font-size="34" font-weight="700" fill="#1f2937">Simulation Engine</text><text x="1013" y="1039" text-anchor="middle" font-family="'XCharter', 'Charter', 'Liberation Serif', serif" font-size="28" font-weight="400" fill="#1f2937">Multi-environment, Multi-agent Vectorized</text>
<path d="M 247 297 L 247 557" fill="none" stroke="#2563eb" stroke-width="4" stroke-linecap="round" stroke-linejoin="round"/><polygon points="247,557 239,544 255,544" fill="#2563eb"/>
<path d="M 247 684 L 247 945" fill="none" stroke="#2563eb" stroke-width="4" stroke-linecap="round" stroke-linejoin="round"/><polygon points="247,945 239,932 255,932" fill="#2563eb"/>
<path d="M 999 314 L 805 314" fill="none" stroke="#16a34a" stroke-width="3.5" stroke-linecap="round" stroke-linejoin="round"/><polygon points="805,314 818,306 818,322" fill="#16a34a"/>
<path d="M 805 362 L 999 362" fill="none" stroke="#16a34a" stroke-width="3.5" stroke-linecap="round" stroke-linejoin="round"/><polygon points="999,362 986,354 986,370" fill="#16a34a"/>
<path d="M 999 473 L 805 473" fill="none" stroke="#16a34a" stroke-width="3.5" stroke-linecap="round" stroke-linejoin="round"/><polygon points="805,473 818,465 818,481" fill="#16a34a"/>
<path d="M 1287 320 L 1337 320 L 1337 619" fill="none" stroke="#16a34a" stroke-width="3.5" stroke-linecap="round" stroke-linejoin="round"/><polygon points="1337,619 1329,606 1345,606" fill="#16a34a"/>
<path d="M 1387 619 L 1387 356 L 1287 356" fill="none" stroke="#16a34a" stroke-width="3.5" stroke-linecap="round" stroke-linejoin="round"/><polygon points="1287,356 1300,348 1300,364" fill="#16a34a"/>
<path d="M 1064 619 L 1064 515" fill="none" stroke="#16a34a" stroke-width="3.5" stroke-linecap="round" stroke-linejoin="round"/><polygon points="1064,515 1056,528 1072,528" fill="#16a34a"/>
<path d="M 863 703 L 863 945" fill="none" stroke="#db2777" stroke-width="3.5" stroke-linecap="round" stroke-linejoin="round"/><polygon points="863,945 855,932 871,932" fill="#db2777"/>
<path d="M 1163 945 L 1163 703" fill="none" stroke="#db2777" stroke-width="3.5" stroke-linecap="round" stroke-linejoin="round"/><polygon points="1163,703 1155,716 1171,716" fill="#db2777"/>
<path d="M 398 1008 L 566 1008" fill="none" stroke="#2563eb" stroke-width="4" stroke-linecap="round" stroke-linejoin="round"/><polygon points="566,1008 553,1000 553,1016" fill="#2563eb"/>
<g><text x="902" y="304" text-anchor="middle" font-family="'XCharter', 'Charter', 'Liberation Serif', serif" font-size="24" font-weight="400" fill="#1f2937">Action Logits</text></g>
<g><text x="902" y="352" text-anchor="middle" font-family="'XCharter', 'Charter', 'Liberation Serif', serif" font-size="24" font-weight="400" fill="#1f2937">Gradient Update</text></g>
<g><text x="902" y="463" text-anchor="middle" font-family="'XCharter', 'Charter', 'Liberation Serif', serif" font-size="24" font-weight="400" fill="#1f2937">Advantages</text></g>
<g transform="rotate(90 1355.4 478.4)"><text x="1355" y="487" text-anchor="middle" font-family="'XCharter', 'Charter', 'Liberation Serif', serif" font-size="24" font-weight="400" fill="#1f2937">Sampled Action</text></g>
<g transform="rotate(90 1405.4 478.4)"><text x="1405" y="487" text-anchor="middle" font-family="'XCharter', 'Charter', 'Liberation Serif', serif" font-size="24" font-weight="400" fill="#1f2937">Observation, Rewards</text></g>
<g transform="rotate(90 1081.6000000000001 567.04)"><text x="1082" y="575" text-anchor="middle" font-family="'XCharter', 'Charter', 'Liberation Serif', serif" font-size="22" font-weight="400" fill="#1f2937">Transitions</text></g>
<g transform="rotate(90 880.74 823.56)"><text x="881" y="832" text-anchor="middle" font-family="'XCharter', 'Charter', 'Liberation Serif', serif" font-size="24" font-weight="400" fill="#1f2937">Sampled Action</text></g>
<g transform="rotate(90 1180.74 823.56)"><text x="1181" y="832" text-anchor="middle" font-family="'XCharter', 'Charter', 'Liberation Serif', serif" font-size="24" font-weight="400" fill="#1f2937">Observation, Rewards</text></g>
</svg>