<svg xmlns="http://www.w3.org/2000/svg" width="920" height="460" viewBox="0 0 920 460" font-family="'Applied Sans Text','Helvetica Neue',Arial,sans-serif">
<line x1="60" y1="396.0" x2="900" y2="396.0" stroke="#e4e4e4" stroke-width="1"/>
<text x="52" y="400.0" text-anchor="end" font-size="11" fill="#767676">0</text>
<line x1="60" y1="336.0" x2="900" y2="336.0" stroke="#e4e4e4" stroke-width="1"/>
<text x="52" y="340.0" text-anchor="end" font-size="11" fill="#767676">500K</text>
<line x1="60" y1="276.0" x2="900" y2="276.0" stroke="#e4e4e4" stroke-width="1"/>
<text x="52" y="280.0" text-anchor="end" font-size="11" fill="#767676">1M</text>
<line x1="60" y1="216.0" x2="900" y2="216.0" stroke="#e4e4e4" stroke-width="1"/>
<text x="52" y="220.0" text-anchor="end" font-size="11" fill="#767676">1.5M</text>
<line x1="60" y1="156.0" x2="900" y2="156.0" stroke="#e4e4e4" stroke-width="1"/>
<text x="52" y="160.0" text-anchor="end" font-size="11" fill="#767676">2M</text>
<line x1="60" y1="96.0" x2="900" y2="96.0" stroke="#e4e4e4" stroke-width="1"/>
<text x="52" y="100.0" text-anchor="end" font-size="11" fill="#767676">2.5M</text>
<line x1="60" y1="36.0" x2="900" y2="36.0" stroke="#e4e4e4" stroke-width="1"/>
<text x="52" y="40.0" text-anchor="end" font-size="11" fill="#767676">3M</text>
<text x="200.0" y="418" text-anchor="middle" font-size="12" font-weight="600" fill="#1f2937">Consumer GPU</text>
<rect x="122.0" y="395.8" width="23.0" height="0.2" fill="#9a9fa5" rx="2"/>
<text x="133.5" y="391.8" text-anchor="middle" font-size="9" fill="#767676">2K</text>
<rect x="148.0" y="394.7" width="23.0" height="1.3" fill="#9a9fa5" rx="2"/>
<text x="159.5" y="390.7" text-anchor="middle" font-size="9" fill="#767676">11K</text>
<rect x="200.0" y="357.6" width="23.0" height="38.4" fill="#9a9fa5" rx="2"/>
<text x="211.5" y="353.6" text-anchor="middle" font-size="9" fill="#767676">320K</text>
<rect x="252.0" y="328.8" width="23.0" height="67.2" fill="#006CFA" rx="2"/>
<text x="263.5" y="324.8" text-anchor="middle" font-size="9" fill="#1f2937">560K</text>
<text x="480.0" y="418" text-anchor="middle" font-size="12" font-weight="600" fill="#1f2937">Server GPU</text>
<rect x="428.0" y="393.4" width="23.0" height="2.6" fill="#9a9fa5" rx="2"/>
<text x="439.5" y="389.4" text-anchor="middle" font-size="9" fill="#767676">22K</text>
<rect x="454.0" y="357.7" width="23.0" height="38.3" fill="#9a9fa5" rx="2"/>
<text x="465.5" y="353.7" text-anchor="middle" font-size="9" fill="#767676">319K</text>
<rect x="480.0" y="306.6" width="23.0" height="89.4" fill="#9a9fa5" rx="2"/>
<text x="491.5" y="302.6" text-anchor="middle" font-size="9" fill="#767676">745K</text>
<rect x="532.0" y="240.0" width="23.0" height="156.0" fill="#006CFA" rx="2"/>
<text x="543.5" y="236.0" text-anchor="middle" font-size="9" fill="#1f2937">1.3M</text>
<text x="760.0" y="418" text-anchor="middle" font-size="12" font-weight="600" fill="#1f2937">8× Server node</text>
<rect x="786.0" y="332.4" width="23.0" height="63.6" fill="#9a9fa5" rx="2"/>
<text x="797.5" y="328.4" text-anchor="middle" font-size="9" fill="#767676">530K</text>
<rect x="812.0" y="60.0" width="23.0" height="336.0" fill="#006CFA" rx="2"/>
<text x="823.5" y="56.0" text-anchor="middle" font-size="9" fill="#1f2937">2.8M</text>
<line x1="60" y1="396" x2="900" y2="396" stroke="#1f2937" stroke-width="1.5"/>
<text x="14" y="216.0" font-size="11" fill="#767676" transform="rotate(-90 14 216.0)" text-anchor="middle">agent steps / sec</text>
</svg>