<?xml version="1.0" encoding="UTF-8"?>
<svg xmlns="http://www.w3.org/2000/svg" xmlns:xlink="http://www.w3.org/1999/xlink" width="220" height="220" viewBox="0 0 220 220">
<path fill-rule="nonzero" fill="rgb(42%, 18.117647%, 4.941176%)" fill-opacity="1" d="M 107.734375 131.410156 L 91.425781 132.074219 L 97.355469 102.445312 L 109.386719 101.980469 Z M 107.734375 131.410156 "/>
<path fill-rule="nonzero" fill="rgb(8.235294%, 8.235294%, 8.235294%)" fill-opacity="1" d="M 121.296875 134.109375 L 42.53125 155.816406 L 42.632812 147.886719 L 121.601562 126.394531 Z M 121.296875 134.109375 "/>
<path fill-rule="nonzero" fill="rgb(42%, 18.117647%, 4.941176%)" fill-opacity="1" d="M 124.167969 132.902344 L 107.734375 131.410156 L 109.386719 101.980469 L 121.507812 103.027344 Z M 124.167969 132.902344 "/>
<path fill-rule="nonzero" fill="rgb(42%, 18.117647%, 4.941176%)" fill-opacity="1" d="M 91.425781 132.074219 L 76.398438 134.855469 L 86.300781 104.394531 L 97.355469 102.445312 Z M 91.425781 132.074219 "/>
<path fill-rule="nonzero" fill="rgb(42%, 18.117647%, 4.941176%)" fill-opacity="1" d="M 139.554688 136.457031 L 124.167969 132.902344 L 121.507812 103.027344 L 132.824219 105.519531 Z M 139.554688 136.457031 "/>
<path fill-rule="nonzero" fill="rgb(47.318874%, 20.412063%, 5.566926%)" fill-opacity="1" d="M 76.398438 134.855469 L 63.753906 139.578125 L 77.058594 107.699219 L 86.300781 104.394531 Z M 76.398438 134.855469 "/>
<path fill-rule="nonzero" fill="rgb(42%, 18.117647%, 4.941176%)" fill-opacity="1" d="M 152.753906 141.851562 L 139.554688 136.457031 L 132.824219 105.519531 L 142.480469 109.285156 Z M 152.753906 141.851562 "/>
<path fill-rule="nonzero" fill="rgb(8.235294%, 8.235294%, 8.235294%)" fill-opacity="1" d="M 176.988281 173.402344 L 121.296875 134.109375 L 121.601562 126.394531 L 177.46875 165.304688 Z M 176.988281 173.402344 "/>
<path fill-rule="nonzero" fill="rgb(54.391234%, 23.462885%, 6.398969%)" fill-opacity="1" d="M 63.753906 139.578125 L 54.476562 145.9375 L 70.355469 112.125 L 77.058594 107.699219 Z M 63.753906 139.578125 "/>
<path fill-rule="nonzero" fill="rgb(42%, 18.117647%, 4.941176%)" fill-opacity="1" d="M 162.734375 148.734375 L 152.753906 141.851562 L 142.480469 109.285156 L 149.707031 114.066406 Z M 162.734375 148.734375 "/>
<path fill-rule="nonzero" fill="rgb(38.705882%, 38.705882%, 38.705882%)" fill-opacity="1" d="M 109.386719 101.980469 L 97.355469 102.445312 L 101.925781 76.289062 L 110.761719 75.960938 Z M 109.386719 101.980469 "/>
<path fill-rule="nonzero" fill="rgb(38.705882%, 38.705882%, 38.705882%)" fill-opacity="1" d="M 121.507812 103.027344 L 109.386719 101.980469 L 110.761719 75.960938 L 119.664062 76.695312 Z M 121.507812 103.027344 "/>
<path fill-rule="nonzero" fill="rgb(38.705882%, 38.705882%, 38.705882%)" fill-opacity="1" d="M 97.355469 102.445312 L 86.300781 104.394531 L 93.828125 77.65625 L 101.925781 76.289062 Z M 97.355469 102.445312 "/>
<path fill-rule="nonzero" fill="rgb(38.705882%, 38.705882%, 38.705882%)" fill-opacity="1" d="M 132.824219 105.519531 L 121.507812 103.027344 L 119.664062 76.695312 L 127.957031 78.441406 Z M 132.824219 105.519531 "/>
<path fill-rule="nonzero" fill="rgb(61.962443%, 26.728897%, 7.289699%)" fill-opacity="1" d="M 54.476562 145.9375 L 49.375 153.5 L 66.765625 117.359375 L 70.355469 112.125 Z M 54.476562 145.9375 "/>
<path fill-rule="nonzero" fill="rgb(41.515827%, 41.515827%, 41.515827%)" fill-opacity="1" d="M 86.300781 104.394531 L 77.058594 107.699219 L 87.085938 79.964844 L 93.828125 77.65625 Z M 86.300781 104.394531 "/>
<path fill-rule="nonzero" fill="rgb(44.940378%, 19.386045%, 5.287103%)" fill-opacity="1" d="M 168.613281 156.617188 L 162.734375 148.734375 L 149.707031 114.066406 L 153.878906 119.507812 Z M 168.613281 156.617188 "/>
<path fill-rule="nonzero" fill="rgb(38.705882%, 38.705882%, 38.705882%)" fill-opacity="1" d="M 142.480469 109.285156 L 132.824219 105.519531 L 127.957031 78.441406 L 135.003906 81.074219 Z M 142.480469 109.285156 "/>
<path fill-rule="nonzero" fill="rgb(18.115133%, 18.115133%, 18.115133%)" fill-opacity="1" d="M 177.46875 165.304688 L 95.390625 189.671875 L 42.632812 147.886719 L 121.601562 126.394531 Z M 177.46875 165.304688 "/>
<path fill-rule="nonzero" fill="rgb(48.139531%, 48.139531%, 48.139531%)" fill-opacity="1" d="M 77.058594 107.699219 L 70.355469 112.125 L 82.238281 83.050781 L 87.085938 79.964844 Z M 77.058594 107.699219 "/>
<path fill-rule="nonzero" fill="rgb(69.419125%, 29.945505%, 8.166956%)" fill-opacity="1" d="M 49.375 153.5 L 49 161.710938 L 66.65625 123.003906 L 66.765625 117.359375 Z M 49.375 153.5 "/>
<path fill-rule="nonzero" fill="rgb(38.705882%, 38.705882%, 38.705882%)" fill-opacity="1" d="M 149.707031 114.066406 L 142.480469 109.285156 L 135.003906 81.074219 L 140.238281 84.398438 Z M 149.707031 114.066406 "/>
<path fill-rule="nonzero" fill="rgb(51.678437%, 22.292659%, 6.079816%)" fill-opacity="1" d="M 169.773438 164.910156 L 168.613281 156.617188 L 153.878906 119.507812 L 154.585938 125.191406 Z M 169.773438 164.910156 "/>
<path fill-rule="nonzero" fill="rgb(55.230437%, 55.230437%, 55.230437%)" fill-opacity="1" d="M 70.355469 112.125 L 66.765625 117.359375 L 79.695312 86.683594 L 82.238281 83.050781 Z M 70.355469 112.125 "/>
<path fill-rule="nonzero" fill="rgb(39.288218%, 39.288218%, 39.288218%)" fill-opacity="1" d="M 153.878906 119.507812 L 149.707031 114.066406 L 140.238281 84.398438 L 143.21875 88.167969 Z M 153.878906 119.507812 "/>
<path fill-rule="nonzero" fill="rgb(76.157184%, 32.852119%, 8.959669%)" fill-opacity="1" d="M 49 161.710938 L 53.5625 169.921875 L 70.128906 128.609375 L 66.65625 123.003906 Z M 49 161.710938 "/>
<path fill-rule="nonzero" fill="rgb(62.214082%, 62.214082%, 62.214082%)" fill-opacity="1" d="M 66.765625 117.359375 L 66.65625 123.003906 L 79.703125 90.582031 L 79.695312 86.683594 Z M 66.765625 117.359375 "/>
<path fill-rule="nonzero" fill="rgb(12.681222%, 12.681222%, 12.681222%)" fill-opacity="1" d="M 95.128906 198 L 42.53125 155.816406 L 42.632812 147.886719 L 95.390625 189.671875 Z M 95.128906 198 "/>
<path fill-rule="nonzero" fill="rgb(59.135119%, 25.509267%, 6.957073%)" fill-opacity="1" d="M 165.9375 172.9375 L 169.773438 164.910156 L 154.585938 125.191406 L 151.671875 130.65625 Z M 165.9375 172.9375 "/>
<path fill-rule="nonzero" fill="rgb(42%, 18.117647%, 4.941176%)" fill-opacity="1" d="M 110.761719 75.960938 L 101.925781 76.289062 L 111.402344 22.074219 L 113.617188 22 Z M 110.761719 75.960938 "/>
<path fill-rule="nonzero" fill="rgb(42%, 18.117647%, 4.941176%)" fill-opacity="1" d="M 119.664062 76.695312 L 110.761719 75.960938 L 113.617188 22 L 115.84375 22.167969 Z M 119.664062 76.695312 "/>
<path fill-rule="nonzero" fill="rgb(45.598828%, 45.598828%, 45.598828%)" fill-opacity="1" d="M 154.585938 125.191406 L 153.878906 119.507812 L 143.21875 88.167969 L 143.660156 92.089844 Z M 154.585938 125.191406 "/>
<path fill-rule="nonzero" fill="rgb(42%, 18.117647%, 4.941176%)" fill-opacity="1" d="M 101.925781 76.289062 L 93.828125 77.65625 L 109.386719 22.382812 L 111.402344 22.074219 Z M 101.925781 76.289062 "/>
<path fill-rule="nonzero" fill="rgb(42%, 18.117647%, 4.941176%)" fill-opacity="1" d="M 127.957031 78.441406 L 119.664062 76.695312 L 115.84375 22.167969 L 117.914062 22.558594 Z M 127.957031 78.441406 "/>
<path fill-rule="nonzero" fill="rgb(45.049089%, 19.43294%, 5.299893%)" fill-opacity="1" d="M 93.828125 77.65625 L 87.085938 79.964844 L 107.722656 22.902344 L 109.386719 22.382812 Z M 93.828125 77.65625 "/>
<path fill-rule="nonzero" fill="rgb(42%, 18.117647%, 4.941176%)" fill-opacity="1" d="M 135.003906 81.074219 L 127.957031 78.441406 L 117.914062 22.558594 L 119.65625 23.148438 Z M 135.003906 81.074219 "/>
<path fill-rule="nonzero" fill="rgb(68.524692%, 68.524692%, 68.524692%)" fill-opacity="1" d="M 66.65625 123.003906 L 70.128906 128.609375 L 82.3125 94.433594 L 79.703125 90.582031 Z M 66.65625 123.003906 "/>
<path fill-rule="nonzero" fill="rgb(52.236512%, 22.533397%, 6.145472%)" fill-opacity="1" d="M 87.085938 79.964844 L 82.238281 83.050781 L 106.546875 23.589844 L 107.722656 22.902344 Z M 87.085938 79.964844 "/>
<path fill-rule="nonzero" fill="rgb(81.630744%, 35.213262%, 9.603617%)" fill-opacity="1" d="M 53.5625 169.921875 L 62.855469 177.4375 L 76.992188 133.707031 L 70.128906 128.609375 Z M 53.5625 169.921875 "/>
<path fill-rule="nonzero" fill="rgb(42%, 18.117647%, 4.941176%)" fill-opacity="1" d="M 140.238281 84.398438 L 135.003906 81.074219 L 119.65625 23.148438 L 120.929688 23.890625 Z M 140.238281 84.398438 "/>
<path fill-rule="nonzero" fill="rgb(52.582473%, 52.582473%, 52.582473%)" fill-opacity="1" d="M 151.671875 130.65625 L 154.585938 125.191406 L 143.660156 92.089844 L 141.472656 95.835938 Z M 151.671875 130.65625 "/>
<path fill-rule="nonzero" fill="rgb(59.9309%, 25.852545%, 7.050694%)" fill-opacity="1" d="M 82.238281 83.050781 L 79.695312 86.683594 L 105.957031 24.394531 L 106.546875 23.589844 Z M 82.238281 83.050781 "/>
<path fill-rule="nonzero" fill="rgb(66.706328%, 28.775279%, 7.847803%)" fill-opacity="1" d="M 157.257812 179.996094 L 165.9375 172.9375 L 151.671875 130.65625 L 145.28125 135.433594 Z M 157.257812 179.996094 "/>
<path fill-rule="nonzero" fill="rgb(42.631896%, 18.39023%, 5.015517%)" fill-opacity="1" d="M 143.21875 88.167969 L 140.238281 84.398438 L 120.929688 23.890625 L 121.632812 24.722656 Z M 143.21875 88.167969 "/>
<path fill-rule="nonzero" fill="rgb(11.693238%, 11.693238%, 11.693238%)" fill-opacity="1" d="M 176.988281 173.402344 L 95.128906 198 L 95.390625 189.671875 L 177.46875 165.304688 Z M 176.988281 173.402344 "/>
<path fill-rule="nonzero" fill="rgb(73.65102%, 73.65102%, 73.65102%)" fill-opacity="1" d="M 70.128906 128.609375 L 76.992188 133.707031 L 87.355469 97.921875 L 82.3125 94.433594 Z M 70.128906 128.609375 "/>
<path fill-rule="nonzero" fill="rgb(67.508897%, 29.121485%, 7.942223%)" fill-opacity="1" d="M 79.695312 86.683594 L 79.703125 90.582031 L 106.003906 25.25 L 105.957031 24.394531 Z M 79.695312 86.683594 "/>
<path fill-rule="nonzero" fill="rgb(85.396368%, 36.837649%, 10.046632%)" fill-opacity="1" d="M 62.855469 177.4375 L 76.226562 183.570312 L 86.738281 137.839844 L 76.992188 133.707031 Z M 62.855469 177.4375 "/>
<path fill-rule="nonzero" fill="rgb(59.673379%, 59.673379%, 59.673379%)" fill-opacity="1" d="M 145.28125 135.433594 L 151.671875 130.65625 L 141.472656 95.835938 L 136.792969 99.097656 Z M 145.28125 135.433594 "/>
<path fill-rule="nonzero" fill="rgb(49.47958%, 21.344132%, 5.821127%)" fill-opacity="1" d="M 143.660156 92.089844 L 143.21875 88.167969 L 121.632812 24.722656 L 121.703125 25.578125 Z M 143.660156 92.089844 "/>
<path fill-rule="nonzero" fill="rgb(73.778689%, 31.826101%, 8.679846%)" fill-opacity="1" d="M 144.347656 185.433594 L 157.257812 179.996094 L 145.28125 135.433594 L 135.898438 139.09375 Z M 144.347656 185.433594 "/>
<path fill-rule="nonzero" fill="rgb(74.356581%, 32.075388%, 8.747833%)" fill-opacity="1" d="M 79.703125 90.582031 L 82.3125 94.433594 L 106.683594 26.085938 L 106.003906 25.25 Z M 79.703125 90.582031 "/>
<path fill-rule="nonzero" fill="rgb(77.17776%, 77.17776%, 77.17776%)" fill-opacity="1" d="M 76.992188 133.707031 L 86.738281 137.839844 L 94.453125 100.738281 L 87.355469 97.921875 Z M 76.992188 133.707031 "/>
<path fill-rule="nonzero" fill="rgb(57.057577%, 24.613073%, 6.712656%)" fill-opacity="1" d="M 141.472656 95.835938 L 143.660156 92.089844 L 121.703125 25.578125 L 121.136719 26.386719 Z M 141.472656 95.835938 "/>
<path fill-rule="nonzero" fill="rgb(66.297083%, 66.297083%, 66.297083%)" fill-opacity="1" d="M 135.898438 139.09375 L 145.28125 135.433594 L 136.792969 99.097656 L 129.980469 101.589844 Z M 135.898438 139.09375 "/>
<path fill-rule="nonzero" fill="rgb(87.148989%, 37.593681%, 10.252822%)" fill-opacity="1" d="M 76.226562 183.570312 L 92.578125 187.730469 L 98.570312 140.636719 L 86.738281 137.839844 Z M 76.226562 183.570312 "/>
<path fill-rule="nonzero" fill="rgb(79.919192%, 34.474946%, 9.402258%)" fill-opacity="1" d="M 82.3125 94.433594 L 87.355469 97.921875 L 107.945312 26.832031 L 106.683594 26.085938 Z M 82.3125 94.433594 "/>
<path fill-rule="nonzero" fill="rgb(64.751965%, 27.93222%, 7.617878%)" fill-opacity="1" d="M 136.792969 99.097656 L 141.472656 95.835938 L 121.136719 26.386719 L 119.972656 27.085938 Z M 136.792969 99.097656 "/>
<path fill-rule="nonzero" fill="rgb(79.779241%, 34.414574%, 9.385793%)" fill-opacity="1" d="M 128.273438 188.714844 L 144.347656 185.433594 L 135.898438 139.09375 L 124.292969 141.292969 Z M 128.273438 188.714844 "/>
<path fill-rule="nonzero" fill="rgb(78.819198%, 78.819198%, 78.819198%)" fill-opacity="1" d="M 86.738281 137.839844 L 98.570312 140.636719 L 103.019531 102.636719 L 94.453125 100.738281 Z M 86.738281 137.839844 "/>
<path fill-rule="nonzero" fill="rgb(71.916973%, 71.916973%, 71.916973%)" fill-opacity="1" d="M 124.292969 141.292969 L 135.898438 139.09375 L 129.980469 101.589844 L 121.585938 103.082031 Z M 124.292969 141.292969 "/>
<path fill-rule="nonzero" fill="rgb(83.746081%, 36.12576%, 9.85248%)" fill-opacity="1" d="M 87.355469 97.921875 L 94.453125 100.738281 L 109.691406 27.433594 L 107.945312 26.832031 Z M 87.355469 97.921875 "/>
<path fill-rule="nonzero" fill="rgb(86.746619%, 37.42011%, 10.205485%)" fill-opacity="1" d="M 92.578125 187.730469 L 110.472656 189.507812 L 111.46875 141.824219 L 98.570312 140.636719 Z M 92.578125 187.730469 "/>
<path fill-rule="nonzero" fill="rgb(84.221856%, 36.330997%, 9.908454%)" fill-opacity="1" d="M 110.472656 189.507812 L 128.273438 188.714844 L 124.292969 141.292969 L 111.46875 141.824219 Z M 110.472656 189.507812 "/>
<path fill-rule="nonzero" fill="rgb(71.939388%, 31.032677%, 8.463457%)" fill-opacity="1" d="M 129.980469 101.589844 L 136.792969 99.097656 L 119.972656 27.085938 L 118.304688 27.613281 Z M 129.980469 101.589844 "/>
<path fill-rule="nonzero" fill="rgb(78.442354%, 78.442354%, 78.442354%)" fill-opacity="1" d="M 98.570312 140.636719 L 111.46875 141.824219 L 112.332031 103.441406 L 103.019531 102.636719 Z M 98.570312 140.636719 "/>
<path fill-rule="nonzero" fill="rgb(76.077757%, 76.077757%, 76.077757%)" fill-opacity="1" d="M 111.46875 141.824219 L 124.292969 141.292969 L 121.585938 103.082031 L 112.332031 103.441406 Z M 111.46875 141.824219 "/>
<path fill-rule="nonzero" fill="rgb(85.527215%, 36.894093%, 10.062025%)" fill-opacity="1" d="M 94.453125 100.738281 L 103.019531 102.636719 L 111.777344 27.835938 L 109.691406 27.433594 Z M 94.453125 100.738281 "/>
<path fill-rule="nonzero" fill="rgb(78.037566%, 33.663264%, 9.18089%)" fill-opacity="1" d="M 121.585938 103.082031 L 129.980469 101.589844 L 118.304688 27.613281 L 116.265625 27.929688 Z M 121.585938 103.082031 "/>
<path fill-rule="nonzero" fill="rgb(85.118299%, 36.717697%, 10.013917%)" fill-opacity="1" d="M 103.019531 102.636719 L 112.332031 103.441406 L 114.027344 28.003906 L 111.777344 27.835938 Z M 103.019531 102.636719 "/>
<path fill-rule="nonzero" fill="rgb(82.552459%, 35.610865%, 9.712054%)" fill-opacity="1" d="M 112.332031 103.441406 L 121.585938 103.082031 L 116.265625 27.929688 L 114.027344 28.003906 Z M 112.332031 103.441406 "/>
</svg>
