<?xml version="1.0" encoding="UTF-8"?>
<svg xmlns="http://www.w3.org/2000/svg" xmlns:xlink="http://www.w3.org/1999/xlink" width="220" height="220" viewBox="0 0 220 220">
<path fill-rule="nonzero" fill="rgb(3.788235%, 31.294118%, 34.094118%)" fill-opacity="1" stroke-width="1.3" stroke-linecap="butt" stroke-linejoin="round" stroke="rgb(5.882353%, 49.019608%, 54.901961%)" stroke-opacity="1" stroke-miterlimit="10" d="M 87.496094 133.011719 L 50.011719 142.738281 L 50.203125 28.710938 L 90.355469 22 Z M 87.496094 133.011719 "/>
<path fill-rule="nonzero" fill="rgb(3.788235%, 31.294118%, 34.094118%)" fill-opacity="1" stroke-width="1.3" stroke-linecap="butt" stroke-linejoin="round" stroke="rgb(5.882353%, 49.019608%, 54.901961%)" stroke-opacity="1" stroke-miterlimit="10" d="M 160.480469 184.699219 L 87.496094 133.011719 L 90.355469 22 L 169.988281 58.011719 Z M 160.480469 184.699219 "/>
<path fill-rule="nonzero" fill="rgb(5.882353%, 49.019608%, 54.901961%)" fill-opacity="1" d="M 73.261719 25.8125 L 98.671875 31.945312 L 80.085938 35.230469 Z M 73.261719 25.8125 "/>
<path fill-rule="nonzero" fill="rgb(5.833362%, 48.188643%, 52.500258%)" fill-opacity="1" stroke-width="1.3" stroke-linecap="butt" stroke-linejoin="round" stroke="rgb(5.882353%, 49.019608%, 54.901961%)" stroke-opacity="1" stroke-miterlimit="10" d="M 119.210938 198 L 50.011719 142.738281 L 50.203125 28.710938 L 125.488281 67.421875 Z M 119.210938 198 "/>
<path fill-rule="nonzero" fill="rgb(8.332961%, 68.837507%, 74.996652%)" fill-opacity="1" stroke-width="1.3" stroke-linecap="butt" stroke-linejoin="round" stroke="rgb(5.882353%, 49.019608%, 54.901961%)" stroke-opacity="1" stroke-miterlimit="10" d="M 169.988281 58.011719 L 125.488281 67.421875 L 50.203125 28.710938 L 90.355469 22 Z M 169.988281 58.011719 "/>
<path fill-rule="nonzero" fill="rgb(5.378889%, 44.434304%, 48.410005%)" fill-opacity="1" stroke-width="1.3" stroke-linecap="butt" stroke-linejoin="round" stroke="rgb(5.882353%, 49.019608%, 54.901961%)" stroke-opacity="1" stroke-miterlimit="10" d="M 160.480469 184.699219 L 119.210938 198 L 125.488281 67.421875 L 169.988281 58.011719 Z M 160.480469 184.699219 "/>
</svg>
