<?xml version="1.0" encoding="UTF-8"?>
<svg xmlns="http://www.w3.org/2000/svg" xmlns:xlink="http://www.w3.org/1999/xlink" width="220" height="220" viewBox="0 0 220 220">
<path fill-rule="nonzero" fill="rgb(94.117647%, 94.117647%, 94.117647%)" fill-opacity="1" d="M 32.496094 50.125 L 25.648438 45.066406 L 22 45.554688 L 28.699219 50.664062 Z M 32.496094 50.125 "/>
<path fill-rule="nonzero" fill="rgb(94.117647%, 94.117647%, 94.117647%)" fill-opacity="1" d="M 46.535156 60.5 L 38.316406 54.425781 L 34.394531 55.011719 L 42.441406 61.148438 Z M 46.535156 60.5 "/>
<path fill-rule="nonzero" fill="rgb(94.117647%, 94.117647%, 94.117647%)" fill-opacity="1" d="M 63.632812 73.132812 L 53.585938 65.707031 L 49.347656 66.417969 L 59.199219 73.933594 Z M 63.632812 73.132812 "/>
<path fill-rule="nonzero" fill="rgb(94.117647%, 94.117647%, 94.117647%)" fill-opacity="1" d="M 84.910156 88.855469 L 72.34375 79.570312 L 67.742188 80.453125 L 80.078125 89.863281 Z M 84.910156 88.855469 "/>
<path fill-rule="nonzero" fill="rgb(94.117647%, 94.117647%, 94.117647%)" fill-opacity="1" d="M 112.113281 108.953125 L 95.949219 97.007812 L 90.921875 98.132812 L 106.820312 110.261719 Z M 112.113281 108.953125 "/>
<path fill-rule="nonzero" fill="rgb(94.117647%, 94.117647%, 94.117647%)" fill-opacity="1" d="M 148.113281 135.550781 L 126.550781 119.617188 L 121.03125 121.105469 L 142.289062 137.320312 Z M 148.113281 135.550781 "/>
<path fill-rule="nonzero" fill="rgb(94.117647%, 94.117647%, 94.117647%)" fill-opacity="1" d="M 198 172.410156 L 167.800781 150.097656 L 161.726562 152.148438 L 191.59375 174.933594 Z M 198 172.410156 "/>
</svg>
