<?xml version="1.0" encoding="UTF-8"?>
<svg xmlns="http://www.w3.org/2000/svg" xmlns:xlink="http://www.w3.org/1999/xlink" width="220" height="220" viewBox="0 0 220 220">
<path fill-rule="nonzero" fill="rgb(47.058824%, 47.058824%, 47.058824%)" fill-opacity="1" stroke="rgb(47.058824%, 47.058824%, 47.058824%)" stroke-opacity="1" stroke-width="9" stroke-linejoin="round" d="M 30.253906 48.847656 L 24.800781 44.800781 L 22 45.183594 L 27.363281 49.257812 Z M 30.253906 48.847656 "/>
<path fill-rule="nonzero" fill="rgb(47.058824%, 47.058824%, 47.058824%)" fill-opacity="1" stroke="rgb(47.058824%, 47.058824%, 47.058824%)" stroke-opacity="1" stroke-width="9" stroke-linejoin="round" d="M 44.476562 59.394531 L 37.925781 54.535156 L 34.910156 54.992188 L 41.359375 59.890625 Z M 44.476562 59.394531 "/>
<path fill-rule="nonzero" fill="rgb(47.058824%, 47.058824%, 47.058824%)" fill-opacity="1" stroke="rgb(47.058824%, 47.058824%, 47.058824%)" stroke-opacity="1" stroke-width="9" stroke-linejoin="round" d="M 61.796875 72.242188 L 53.777344 66.292969 L 50.515625 66.847656 L 58.417969 72.851562 Z M 61.796875 72.242188 "/>
<path fill-rule="nonzero" fill="rgb(47.058824%, 47.058824%, 47.058824%)" fill-opacity="1" stroke="rgb(47.058824%, 47.058824%, 47.058824%)" stroke-opacity="1" stroke-width="9" stroke-linejoin="round" d="M 83.355469 88.234375 L 73.308594 80.78125 L 69.765625 81.472656 L 79.675781 89.003906 Z M 83.355469 88.234375 "/>
<path fill-rule="nonzero" fill="rgb(47.058824%, 47.058824%, 47.058824%)" fill-opacity="1" stroke="rgb(47.058824%, 47.058824%, 47.058824%)" stroke-opacity="1" stroke-width="9" stroke-linejoin="round" d="M 110.917969 108.683594 L 97.96875 99.074219 L 94.097656 99.960938 L 106.886719 109.679688 Z M 110.917969 108.683594 "/>
<path fill-rule="nonzero" fill="rgb(47.058824%, 47.058824%, 47.058824%)" fill-opacity="1" stroke="rgb(47.058824%, 47.058824%, 47.058824%)" stroke-opacity="1" stroke-width="9" stroke-linejoin="round" d="M 147.410156 135.75 L 130.089844 122.902344 L 125.835938 124.074219 L 142.976562 137.097656 Z M 147.410156 135.75 "/>
<path fill-rule="nonzero" fill="rgb(47.058824%, 47.058824%, 47.058824%)" fill-opacity="1" stroke="rgb(47.058824%, 47.058824%, 47.058824%)" stroke-opacity="1" stroke-width="9" stroke-linejoin="round" d="M 198 173.277344 L 173.648438 155.214844 L 168.964844 156.847656 L 193.121094 175.199219 Z M 198 173.277344 "/>
</svg>
