<?xml version="1.0" encoding="UTF-8"?>
<svg xmlns="http://www.w3.org/2000/svg" xmlns:xlink="http://www.w3.org/1999/xlink" width="220" height="220" viewBox="0 0 220 220">
<path fill-rule="nonzero" fill="rgb(19.764706%, 20.752941%, 22.729412%)" fill-opacity="1" stroke-width="1.3" stroke-linecap="butt" stroke-linejoin="round" stroke="rgb(35.294118%, 35.294118%, 37.254902%)" stroke-opacity="1" stroke-miterlimit="10" d="M 79.875 82.375 L 24.519531 94.582031 L 22 49.023438 L 80.605469 40.324219 Z M 79.875 82.375 "/>
<path fill-rule="nonzero" fill="rgb(35.294118%, 35.294118%, 37.254902%)" fill-opacity="1" d="M 55.457031 45.539062 L 87.378906 52.3125 L 58.964844 57.171875 Z M 55.457031 45.539062 "/>
<path fill-rule="nonzero" fill="rgb(19.764706%, 20.752941%, 22.729412%)" fill-opacity="1" stroke-width="1.3" stroke-linecap="butt" stroke-linejoin="round" stroke="rgb(35.294118%, 35.294118%, 37.254902%)" stroke-opacity="1" stroke-miterlimit="10" d="M 187.621094 149.777344 L 79.875 82.375 L 80.605469 40.324219 L 198 89.523438 Z M 187.621094 149.777344 "/>
<path fill-rule="nonzero" fill="rgb(43.47632%, 45.650136%, 49.997768%)" fill-opacity="1" stroke-width="1.3" stroke-linecap="butt" stroke-linejoin="round" stroke="rgb(35.294118%, 35.294118%, 37.254902%)" stroke-opacity="1" stroke-miterlimit="10" d="M 198 89.523438 L 120.082031 112.285156 L 22 49.023438 L 80.605469 40.324219 Z M 198 89.523438 "/>
<path fill-rule="nonzero" fill="rgb(30.434932%, 31.956679%, 35.000172%)" fill-opacity="1" stroke-width="1.3" stroke-linecap="butt" stroke-linejoin="round" stroke="rgb(35.294118%, 35.294118%, 37.254902%)" stroke-opacity="1" stroke-miterlimit="10" d="M 115.207031 179.675781 L 24.519531 94.582031 L 22 49.023438 L 120.082031 112.285156 Z M 115.207031 179.675781 "/>
<path fill-rule="nonzero" fill="rgb(28.063771%, 29.466959%, 32.273336%)" fill-opacity="1" stroke-width="1.3" stroke-linecap="butt" stroke-linejoin="round" stroke="rgb(35.294118%, 35.294118%, 37.254902%)" stroke-opacity="1" stroke-miterlimit="10" d="M 187.621094 149.777344 L 115.207031 179.675781 L 120.082031 112.285156 L 198 89.523438 Z M 187.621094 149.777344 "/>
</svg>
