<?xml version="1.0" encoding="UTF-8"?>
<svg xmlns="http://www.w3.org/2000/svg" xmlns:xlink="http://www.w3.org/1999/xlink" width="220" height="220" viewBox="0 0 220 220">
<path fill-rule="nonzero" fill="rgb(100%, 86.27451%, 0%)" fill-opacity="1" d="M 172.949219 166.015625 L 131.863281 143.472656 L 47.050781 164.5625 L 76.335938 198 Z M 172.949219 166.015625 "/>
<path fill-rule="nonzero" fill="rgb(100%, 86.27451%, 0%)" fill-opacity="1" d="M 113.726562 62.867188 L 106.175781 62.902344 L 105.910156 52.199219 L 114.144531 52.175781 Z M 113.726562 62.867188 "/>
<path fill-rule="nonzero" fill="rgb(100%, 86.27451%, 0%)" fill-opacity="1" d="M 113.289062 72.351562 L 107.46875 72.386719 L 106.175781 62.902344 L 113.726562 62.867188 Z M 113.289062 72.351562 "/>
<path fill-rule="nonzero" fill="rgb(100%, 86.27451%, 0%)" fill-opacity="1" d="M 119.101562 72.566406 L 113.289062 72.351562 L 113.726562 62.867188 L 121.273438 63.078125 Z M 119.101562 72.566406 "/>
<path fill-rule="nonzero" fill="rgb(100%, 86.27451%, 0%)" fill-opacity="1" d="M 121.273438 63.078125 L 113.726562 62.867188 L 114.144531 52.175781 L 122.386719 52.320312 Z M 121.273438 63.078125 "/>
<path fill-rule="nonzero" fill="rgb(100%, 86.27451%, 0%)" fill-opacity="1" d="M 107.46875 72.386719 L 102.089844 72.675781 L 99.179688 63.183594 L 106.175781 62.902344 Z M 107.46875 72.386719 "/>
<path fill-rule="nonzero" fill="rgb(100%, 86.27451%, 0%)" fill-opacity="1" d="M 106.175781 62.902344 L 99.179688 63.183594 L 98.269531 52.394531 L 105.910156 52.199219 Z M 106.175781 62.902344 "/>
<path fill-rule="nonzero" fill="rgb(100%, 86.27451%, 0%)" fill-opacity="1" d="M 124.4375 73.027344 L 119.101562 72.566406 L 121.273438 63.078125 L 128.257812 63.527344 Z M 124.4375 73.027344 "/>
<path fill-rule="nonzero" fill="rgb(100%, 86.27451%, 0%)" fill-opacity="1" d="M 114.144531 52.175781 L 105.910156 52.199219 L 106.722656 41.433594 L 114.503906 41.425781 Z M 114.144531 52.175781 "/>
<path fill-rule="nonzero" fill="rgb(100%, 86.27451%, 0%)" fill-opacity="1" d="M 128.257812 63.527344 L 121.273438 63.078125 L 122.386719 52.320312 L 130.039062 52.628906 Z M 128.257812 63.527344 "/>
<path fill-rule="nonzero" fill="rgb(100%, 86.27451%, 0%)" fill-opacity="1" d="M 112.886719 79.554688 L 109.664062 79.582031 L 107.46875 72.386719 L 113.289062 72.351562 Z M 112.886719 79.554688 "/>
<path fill-rule="nonzero" fill="rgb(100%, 86.27451%, 0%)" fill-opacity="1" d="M 102.089844 72.675781 L 97.605469 73.195312 L 93.273438 63.695312 L 99.179688 63.183594 Z M 102.089844 72.675781 "/>
<path fill-rule="nonzero" fill="rgb(100%, 86.27451%, 0%)" fill-opacity="1" d="M 116.09375 79.699219 L 112.886719 79.554688 L 113.289062 72.351562 L 119.101562 72.566406 Z M 116.09375 79.699219 "/>
<path fill-rule="nonzero" fill="rgb(100%, 86.27451%, 0%)" fill-opacity="1" d="M 122.386719 52.320312 L 114.144531 52.175781 L 114.503906 41.425781 L 122.289062 41.480469 Z M 122.386719 52.320312 "/>
<path fill-rule="nonzero" fill="rgb(100%, 86.27451%, 0%)" fill-opacity="1" d="M 109.664062 79.582031 L 106.707031 79.769531 L 102.089844 72.675781 L 107.46875 72.386719 Z M 109.664062 79.582031 "/>
<path fill-rule="nonzero" fill="rgb(100%, 86.27451%, 0%)" fill-opacity="1" d="M 99.179688 63.183594 L 93.273438 63.695312 L 91.792969 52.742188 L 98.269531 52.394531 Z M 99.179688 63.183594 "/>
<path fill-rule="nonzero" fill="rgb(100%, 86.27451%, 0%)" fill-opacity="1" d="M 105.910156 52.199219 L 98.269531 52.394531 L 99.515625 41.503906 L 106.722656 41.433594 Z M 105.910156 52.199219 "/>
<path fill-rule="nonzero" fill="rgb(100%, 86.27451%, 0%)" fill-opacity="1" d="M 119.003906 79.996094 L 116.09375 79.699219 L 119.101562 72.566406 L 124.4375 73.027344 Z M 119.003906 79.996094 "/>
<path fill-rule="nonzero" fill="rgb(100%, 86.27451%, 0%)" fill-opacity="1" d="M 106.707031 79.769531 L 104.28125 80.109375 L 97.605469 73.195312 L 102.089844 72.675781 Z M 106.707031 79.769531 "/>
<path fill-rule="nonzero" fill="rgb(100%, 86.27451%, 0%)" fill-opacity="1" d="M 128.835938 73.695312 L 124.4375 73.027344 L 128.257812 63.527344 L 134.105469 64.1875 Z M 128.835938 73.695312 "/>
<path fill-rule="nonzero" fill="rgb(100%, 86.27451%, 0%)" fill-opacity="1" d="M 130.039062 52.628906 L 122.386719 52.320312 L 122.289062 41.480469 L 129.507812 41.59375 Z M 130.039062 52.628906 "/>
<path fill-rule="nonzero" fill="rgb(100%, 86.27451%, 0%)" fill-opacity="1" d="M 134.105469 64.1875 L 128.257812 63.527344 L 130.039062 52.628906 L 136.488281 53.082031 Z M 134.105469 64.1875 "/>
<path fill-rule="nonzero" fill="rgb(100%, 86.27451%, 0%)" fill-opacity="1" d="M 121.351562 80.425781 L 119.003906 79.996094 L 124.4375 73.027344 L 128.835938 73.695312 Z M 121.351562 80.425781 "/>
<path fill-rule="nonzero" fill="rgb(100%, 86.27451%, 0%)" fill-opacity="1" d="M 98.269531 52.394531 L 91.792969 52.742188 L 93.429688 41.636719 L 99.515625 41.503906 Z M 98.269531 52.394531 "/>
<path fill-rule="nonzero" fill="rgb(100%, 86.27451%, 0%)" fill-opacity="1" d="M 97.605469 73.195312 L 94.421875 73.917969 L 88.992188 64.410156 L 93.273438 63.695312 Z M 97.605469 73.195312 "/>
<path fill-rule="nonzero" fill="rgb(100%, 86.27451%, 0%)" fill-opacity="1" d="M 104.28125 80.109375 L 102.617188 80.570312 L 94.421875 73.917969 L 97.605469 73.195312 Z M 104.28125 80.109375 "/>
<path fill-rule="nonzero" fill="rgb(100%, 86.27451%, 0%)" fill-opacity="1" d="M 93.273438 63.695312 L 88.992188 64.410156 L 87.0625 53.234375 L 91.792969 52.742188 Z M 93.273438 63.695312 "/>
<path fill-rule="nonzero" fill="rgb(100%, 86.27451%, 0%)" fill-opacity="1" d="M 114.503906 41.425781 L 106.722656 41.433594 L 108.589844 31.878906 L 114.75 31.878906 Z M 114.503906 41.425781 "/>
<path fill-rule="nonzero" fill="rgb(100%, 86.27451%, 0%)" fill-opacity="1" d="M 112.5625 83.472656 L 109.664062 79.582031 L 112.886719 79.554688 Z M 112.5625 83.472656 "/>
<path fill-rule="nonzero" fill="rgb(100%, 86.27451%, 0%)" fill-opacity="1" d="M 112.5625 83.472656 L 112.886719 79.554688 L 116.09375 79.699219 Z M 112.5625 83.472656 "/>
<path fill-rule="nonzero" fill="rgb(100%, 86.27451%, 0%)" fill-opacity="1" d="M 112.5625 83.472656 L 106.707031 79.769531 L 109.664062 79.582031 Z M 112.5625 83.472656 "/>
<path fill-rule="nonzero" fill="rgb(100%, 86.27451%, 0%)" fill-opacity="1" d="M 122.289062 41.480469 L 114.503906 41.425781 L 114.75 31.878906 L 120.914062 31.867188 Z M 122.289062 41.480469 "/>
<path fill-rule="nonzero" fill="rgb(100%, 86.27451%, 0%)" fill-opacity="1" d="M 112.5625 83.472656 L 116.09375 79.699219 L 119.003906 79.996094 Z M 112.5625 83.472656 "/>
<path fill-rule="nonzero" fill="rgb(100%, 86.27451%, 0%)" fill-opacity="1" d="M 112.5625 83.472656 L 104.28125 80.109375 L 106.707031 79.769531 Z M 112.5625 83.472656 "/>
<path fill-rule="nonzero" fill="rgb(100%, 86.27451%, 0%)" fill-opacity="1" d="M 106.722656 41.433594 L 99.515625 41.503906 L 102.902344 31.859375 L 108.589844 31.878906 Z M 106.722656 41.433594 "/>
<path fill-rule="nonzero" fill="rgb(100%, 86.27451%, 0%)" fill-opacity="1" d="M 122.902344 80.953125 L 121.351562 80.425781 L 128.835938 73.695312 L 131.863281 74.527344 Z M 122.902344 80.953125 "/>
<path fill-rule="nonzero" fill="rgb(100%, 86.27451%, 0%)" fill-opacity="1" d="M 136.488281 53.082031 L 130.039062 52.628906 L 129.507812 41.59375 L 135.574219 41.761719 Z M 136.488281 53.082031 "/>
<path fill-rule="nonzero" fill="rgb(100%, 86.27451%, 0%)" fill-opacity="1" d="M 112.5625 83.472656 L 119.003906 79.996094 L 121.351562 80.425781 Z M 112.5625 83.472656 "/>
<path fill-rule="nonzero" fill="rgb(100%, 86.27451%, 0%)" fill-opacity="1" d="M 131.863281 74.527344 L 128.835938 73.695312 L 134.105469 64.1875 L 138.246094 65.019531 Z M 131.863281 74.527344 "/>
<path fill-rule="nonzero" fill="rgb(100%, 86.27451%, 0%)" fill-opacity="1" d="M 112.5625 83.472656 L 102.617188 80.570312 L 104.28125 80.109375 Z M 112.5625 83.472656 "/>
<path fill-rule="nonzero" fill="rgb(100%, 86.27451%, 0%)" fill-opacity="1" d="M 102.617188 80.570312 L 101.894531 81.117188 L 92.902344 74.785156 L 94.421875 73.917969 Z M 102.617188 80.570312 "/>
<path fill-rule="nonzero" fill="rgb(100%, 86.27451%, 0%)" fill-opacity="1" d="M 112.5625 83.472656 L 121.351562 80.425781 L 122.902344 80.953125 Z M 112.5625 83.472656 "/>
<path fill-rule="nonzero" fill="rgb(100%, 86.27451%, 0%)" fill-opacity="1" d="M 129.507812 41.59375 L 122.289062 41.480469 L 120.914062 31.867188 L 126.589844 31.832031 Z M 129.507812 41.59375 "/>
<path fill-rule="nonzero" fill="rgb(100%, 86.27451%, 0%)" fill-opacity="1" d="M 91.792969 52.742188 L 87.0625 53.234375 L 89.015625 41.820312 L 93.429688 41.636719 Z M 91.792969 52.742188 "/>
<path fill-rule="nonzero" fill="rgb(100%, 86.27451%, 0%)" fill-opacity="1" d="M 112.5625 83.472656 L 101.894531 81.117188 L 102.617188 80.570312 Z M 112.5625 83.472656 "/>
<path fill-rule="nonzero" fill="rgb(100%, 86.27451%, 0%)" fill-opacity="1" d="M 94.421875 73.917969 L 92.902344 74.785156 L 86.828125 65.28125 L 88.992188 64.410156 Z M 94.421875 73.917969 "/>
<path fill-rule="nonzero" fill="rgb(100%, 86.27451%, 0%)" fill-opacity="1" d="M 138.246094 65.019531 L 134.105469 64.1875 L 136.488281 53.082031 L 141.109375 53.652344 Z M 138.246094 65.019531 "/>
<path fill-rule="nonzero" fill="rgb(100%, 86.27451%, 0%)" fill-opacity="1" d="M 99.515625 41.503906 L 93.429688 41.636719 L 98.160156 31.820312 L 102.902344 31.859375 Z M 99.515625 41.503906 "/>
<path fill-rule="nonzero" fill="rgb(100%, 86.27451%, 0%)" fill-opacity="1" d="M 112.5625 83.472656 L 122.902344 80.953125 L 123.480469 81.527344 Z M 112.5625 83.472656 "/>
<path fill-rule="nonzero" fill="rgb(100%, 86.27451%, 0%)" fill-opacity="1" d="M 112.5625 83.472656 L 102.214844 81.695312 L 101.894531 81.117188 Z M 112.5625 83.472656 "/>
<path fill-rule="nonzero" fill="rgb(100%, 86.27451%, 0%)" fill-opacity="1" d="M 123.480469 81.527344 L 122.902344 80.953125 L 131.863281 74.527344 L 133.152344 75.453125 Z M 123.480469 81.527344 "/>
<path fill-rule="nonzero" fill="rgb(100%, 86.27451%, 0%)" fill-opacity="1" d="M 112.5625 83.472656 L 123.480469 81.527344 L 122.992188 82.097656 Z M 112.5625 83.472656 "/>
<path fill-rule="nonzero" fill="rgb(100%, 86.27451%, 0%)" fill-opacity="1" d="M 88.992188 64.410156 L 86.828125 65.28125 L 84.617188 53.835938 L 87.0625 53.234375 Z M 88.992188 64.410156 "/>
<path fill-rule="nonzero" fill="rgb(100%, 86.27451%, 0%)" fill-opacity="1" d="M 112.5625 83.472656 L 103.585938 82.25 L 102.214844 81.695312 Z M 112.5625 83.472656 "/>
<path fill-rule="nonzero" fill="rgb(100%, 86.27451%, 0%)" fill-opacity="1" d="M 101.894531 81.117188 L 102.214844 81.695312 L 93.292969 75.722656 L 92.902344 74.785156 Z M 101.894531 81.117188 "/>
<path fill-rule="nonzero" fill="rgb(100%, 86.27451%, 0%)" fill-opacity="1" d="M 112.5625 83.472656 L 122.992188 82.097656 L 121.453125 82.597656 Z M 112.5625 83.472656 "/>
<path fill-rule="nonzero" fill="rgb(100%, 86.27451%, 0%)" fill-opacity="1" d="M 135.574219 41.761719 L 129.507812 41.59375 L 126.589844 31.832031 L 131.296875 31.789062 Z M 135.574219 41.761719 "/>
<path fill-rule="nonzero" fill="rgb(100%, 86.27451%, 0%)" fill-opacity="1" d="M 112.5625 83.472656 L 105.894531 82.722656 L 103.585938 82.25 Z M 112.5625 83.472656 "/>
<path fill-rule="nonzero" fill="rgb(100%, 86.27451%, 0%)" fill-opacity="1" d="M 133.152344 75.453125 L 131.863281 74.527344 L 138.246094 65.019531 L 140.152344 65.957031 Z M 133.152344 75.453125 "/>
<path fill-rule="nonzero" fill="rgb(100%, 86.27451%, 0%)" fill-opacity="1" d="M 141.109375 53.652344 L 136.488281 53.082031 L 135.574219 41.761719 L 139.890625 41.976562 Z M 141.109375 53.652344 "/>
<path fill-rule="nonzero" fill="rgb(100%, 86.27451%, 0%)" fill-opacity="1" d="M 112.5625 83.472656 L 121.453125 82.597656 L 118.996094 82.980469 Z M 112.5625 83.472656 "/>
<path fill-rule="nonzero" fill="rgb(100%, 86.27451%, 0%)" fill-opacity="1" d="M 112.5625 83.472656 L 108.929688 83.0625 L 105.894531 82.722656 Z M 112.5625 83.472656 "/>
<path fill-rule="nonzero" fill="rgb(100%, 86.27451%, 0%)" fill-opacity="1" d="M 93.429688 41.636719 L 89.015625 41.820312 L 94.792969 31.773438 L 98.160156 31.820312 Z M 93.429688 41.636719 "/>
<path fill-rule="nonzero" fill="rgb(100%, 86.27451%, 0%)" fill-opacity="1" d="M 112.5625 83.472656 L 118.996094 82.980469 L 115.855469 83.199219 Z M 112.5625 83.472656 "/>
<path fill-rule="nonzero" fill="rgb(100%, 86.27451%, 0%)" fill-opacity="1" d="M 112.5625 83.472656 L 112.375 83.226562 L 108.929688 83.0625 Z M 112.5625 83.472656 "/>
<path fill-rule="nonzero" fill="rgb(100%, 86.27451%, 0%)" fill-opacity="1" d="M 114.75 31.878906 L 108.589844 31.878906 L 111.367188 24.933594 L 114.847656 24.941406 Z M 114.75 31.878906 "/>
<path fill-rule="nonzero" fill="rgb(100%, 86.27451%, 0%)" fill-opacity="1" d="M 112.5625 83.472656 L 115.855469 83.199219 L 112.375 83.226562 Z M 112.5625 83.472656 "/>
<path fill-rule="nonzero" fill="rgb(100%, 86.27451%, 0%)" fill-opacity="1" d="M 120.914062 31.867188 L 114.75 31.878906 L 114.847656 24.941406 L 118.316406 24.910156 Z M 120.914062 31.867188 "/>
<path fill-rule="nonzero" fill="rgb(100%, 86.27451%, 0%)" fill-opacity="1" d="M 122.992188 82.097656 L 123.480469 81.527344 L 133.152344 75.453125 L 132.453125 76.390625 Z M 122.992188 82.097656 "/>
<path fill-rule="nonzero" fill="rgb(100%, 86.27451%, 0%)" fill-opacity="1" d="M 92.902344 74.785156 L 93.292969 75.722656 L 87.160156 66.238281 L 86.828125 65.28125 Z M 92.902344 74.785156 "/>
<path fill-rule="nonzero" fill="rgb(100%, 86.27451%, 0%)" fill-opacity="1" d="M 87.0625 53.234375 L 84.617188 53.835938 L 86.773438 42.042969 L 89.015625 41.820312 Z M 87.0625 53.234375 "/>
<path fill-rule="nonzero" fill="rgb(100%, 86.27451%, 0%)" fill-opacity="1" d="M 108.589844 31.878906 L 102.902344 31.859375 L 108.179688 24.894531 L 111.367188 24.933594 Z M 108.589844 31.878906 "/>
<path fill-rule="nonzero" fill="rgb(100%, 86.27451%, 0%)" fill-opacity="1" d="M 102.214844 81.695312 L 103.585938 82.25 L 95.691406 76.644531 L 93.292969 75.722656 Z M 102.214844 81.695312 "/>
<path fill-rule="nonzero" fill="rgb(100%, 86.27451%, 0%)" fill-opacity="1" d="M 140.152344 65.957031 L 138.246094 65.019531 L 141.109375 53.652344 L 143.304688 54.304688 Z M 140.152344 65.957031 "/>
<path fill-rule="nonzero" fill="rgb(100%, 86.27451%, 0%)" fill-opacity="1" d="M 126.589844 31.832031 L 120.914062 31.867188 L 118.316406 24.910156 L 121.480469 24.839844 Z M 126.589844 31.832031 "/>
<path fill-rule="nonzero" fill="rgb(100%, 86.27451%, 0%)" fill-opacity="1" d="M 102.902344 31.859375 L 98.160156 31.820312 L 105.570312 24.816406 L 108.179688 24.894531 Z M 102.902344 31.859375 "/>
<path fill-rule="nonzero" fill="rgb(100%, 86.27451%, 0%)" fill-opacity="1" d="M 139.890625 41.976562 L 135.574219 41.761719 L 131.296875 31.789062 L 134.566406 31.730469 Z M 139.890625 41.976562 "/>
<path fill-rule="nonzero" fill="rgb(100%, 86.27451%, 0%)" fill-opacity="1" d="M 86.828125 65.28125 L 87.160156 66.238281 L 84.910156 54.5 L 84.617188 53.835938 Z M 86.828125 65.28125 "/>
<path fill-rule="nonzero" fill="rgb(100%, 86.27451%, 0%)" fill-opacity="1" d="M 121.453125 82.597656 L 122.992188 82.097656 L 132.453125 76.390625 L 129.703125 77.234375 Z M 121.453125 82.597656 "/>
<path fill-rule="nonzero" fill="rgb(100%, 86.27451%, 0%)" fill-opacity="1" d="M 132.453125 76.390625 L 133.152344 75.453125 L 140.152344 65.957031 L 139.429688 66.921875 Z M 132.453125 76.390625 "/>
<path fill-rule="nonzero" fill="rgb(100%, 86.27451%, 0%)" fill-opacity="1" d="M 131.296875 31.789062 L 126.589844 31.832031 L 121.480469 24.839844 L 124.042969 24.746094 Z M 131.296875 31.789062 "/>
<path fill-rule="nonzero" fill="rgb(100%, 86.27451%, 0%)" fill-opacity="1" d="M 103.585938 82.25 L 105.894531 82.722656 L 99.964844 77.445312 L 95.691406 76.644531 Z M 103.585938 82.25 "/>
<path fill-rule="nonzero" fill="rgb(100%, 86.27451%, 0%)" fill-opacity="1" d="M 89.015625 41.820312 L 86.773438 42.042969 L 93.183594 31.710938 L 94.792969 31.773438 Z M 89.015625 41.820312 "/>
<path fill-rule="nonzero" fill="rgb(100%, 86.27451%, 0%)" fill-opacity="1" d="M 98.160156 31.820312 L 94.792969 31.773438 L 103.785156 24.710938 L 105.570312 24.816406 Z M 98.160156 31.820312 "/>
<path fill-rule="nonzero" fill="rgb(100%, 86.27451%, 0%)" fill-opacity="1" d="M 143.304688 54.304688 L 141.109375 53.652344 L 139.890625 41.976562 L 141.917969 42.21875 Z M 143.304688 54.304688 "/>
<path fill-rule="nonzero" fill="rgb(100%, 86.27451%, 0%)" fill-opacity="1" d="M 93.292969 75.722656 L 95.691406 76.644531 L 90.191406 67.1875 L 87.160156 66.238281 Z M 93.292969 75.722656 "/>
<path fill-rule="nonzero" fill="rgb(100%, 86.27451%, 0%)" fill-opacity="1" d="M 118.996094 82.980469 L 121.453125 82.597656 L 129.703125 77.234375 L 125.097656 77.890625 Z M 118.996094 82.980469 "/>
<path fill-rule="nonzero" fill="rgb(100%, 86.27451%, 0%)" fill-opacity="1" d="M 105.894531 82.722656 L 108.929688 83.0625 L 105.730469 78.027344 L 99.964844 77.445312 Z M 105.894531 82.722656 "/>
<path fill-rule="nonzero" fill="rgb(100%, 86.27451%, 0%)" fill-opacity="1" d="M 84.617188 53.835938 L 84.910156 54.5 L 87.117188 42.289062 L 86.773438 42.042969 Z M 84.617188 53.835938 "/>
<path fill-rule="nonzero" fill="rgb(100%, 86.27451%, 0%)" fill-opacity="1" d="M 134.566406 31.730469 L 131.296875 31.789062 L 124.042969 24.746094 L 125.753906 24.625 Z M 134.566406 31.730469 "/>
<path fill-rule="nonzero" fill="rgb(100%, 86.27451%, 0%)" fill-opacity="1" d="M 115.855469 83.199219 L 118.996094 82.980469 L 125.097656 77.890625 L 119.089844 78.265625 Z M 115.855469 83.199219 "/>
<path fill-rule="nonzero" fill="rgb(100%, 86.27451%, 0%)" fill-opacity="1" d="M 139.429688 66.921875 L 140.152344 65.957031 L 143.304688 54.304688 L 142.613281 54.976562 Z M 139.429688 66.921875 "/>
<path fill-rule="nonzero" fill="rgb(100%, 86.27451%, 0%)" fill-opacity="1" d="M 141.917969 42.21875 L 139.890625 41.976562 L 134.566406 31.730469 L 136.003906 31.664062 Z M 141.917969 42.21875 "/>
<path fill-rule="nonzero" fill="rgb(100%, 86.27451%, 0%)" fill-opacity="1" d="M 94.792969 31.773438 L 93.183594 31.710938 L 103.019531 24.589844 L 103.785156 24.710938 Z M 94.792969 31.773438 "/>
<path fill-rule="nonzero" fill="rgb(100%, 86.27451%, 0%)" fill-opacity="1" d="M 108.929688 83.0625 L 112.375 83.226562 L 112.367188 78.316406 L 105.730469 78.027344 Z M 108.929688 83.0625 "/>
<path fill-rule="nonzero" fill="rgb(100%, 86.27451%, 0%)" fill-opacity="1" d="M 114.847656 24.941406 L 111.367188 24.933594 L 114.753906 22 Z M 114.847656 24.941406 "/>
<path fill-rule="nonzero" fill="rgb(100%, 86.27451%, 0%)" fill-opacity="1" d="M 112.375 83.226562 L 115.855469 83.199219 L 119.089844 78.265625 L 112.367188 78.316406 Z M 112.375 83.226562 "/>
<path fill-rule="nonzero" fill="rgb(100%, 86.27451%, 0%)" fill-opacity="1" d="M 118.316406 24.910156 L 114.847656 24.941406 L 114.753906 22 Z M 118.316406 24.910156 "/>
<path fill-rule="nonzero" fill="rgb(100%, 86.27451%, 0%)" fill-opacity="1" d="M 111.367188 24.933594 L 108.179688 24.894531 L 114.753906 22 Z M 111.367188 24.933594 "/>
<path fill-rule="nonzero" fill="rgb(100%, 86.27451%, 0%)" fill-opacity="1" d="M 129.703125 77.234375 L 132.453125 76.390625 L 139.429688 66.921875 L 135.917969 67.804688 Z M 129.703125 77.234375 "/>
<path fill-rule="nonzero" fill="rgb(100%, 86.27451%, 0%)" fill-opacity="1" d="M 121.480469 24.839844 L 118.316406 24.910156 L 114.753906 22 Z M 121.480469 24.839844 "/>
<path fill-rule="nonzero" fill="rgb(100%, 86.27451%, 0%)" fill-opacity="1" d="M 108.179688 24.894531 L 105.570312 24.816406 L 114.753906 22 Z M 108.179688 24.894531 "/>
<path fill-rule="nonzero" fill="rgb(100%, 86.27451%, 0%)" fill-opacity="1" d="M 87.160156 66.238281 L 90.191406 67.1875 L 88.1875 55.164062 L 84.910156 54.5 Z M 87.160156 66.238281 "/>
<path fill-rule="nonzero" fill="rgb(100%, 86.27451%, 0%)" fill-opacity="1" d="M 86.773438 42.042969 L 87.117188 42.289062 L 93.609375 31.644531 L 93.183594 31.710938 Z M 86.773438 42.042969 "/>
<path fill-rule="nonzero" fill="rgb(100%, 86.27451%, 0%)" fill-opacity="1" d="M 124.042969 24.746094 L 121.480469 24.839844 L 114.753906 22 Z M 124.042969 24.746094 "/>
<path fill-rule="nonzero" fill="rgb(100%, 86.27451%, 0%)" fill-opacity="1" d="M 95.691406 76.644531 L 99.964844 77.445312 L 95.816406 68.027344 L 90.191406 67.1875 Z M 95.691406 76.644531 "/>
<path fill-rule="nonzero" fill="rgb(100%, 86.27451%, 0%)" fill-opacity="1" d="M 105.570312 24.816406 L 103.785156 24.710938 L 114.753906 22 Z M 105.570312 24.816406 "/>
<path fill-rule="nonzero" fill="rgb(100%, 86.27451%, 0%)" fill-opacity="1" d="M 136.003906 31.664062 L 134.566406 31.730469 L 125.753906 24.625 L 126.417969 24.496094 Z M 136.003906 31.664062 "/>
<path fill-rule="nonzero" fill="rgb(100%, 86.27451%, 0%)" fill-opacity="1" d="M 125.753906 24.625 L 124.042969 24.746094 L 114.753906 22 Z M 125.753906 24.625 "/>
<path fill-rule="nonzero" fill="rgb(100%, 86.27451%, 0%)" fill-opacity="1" d="M 142.613281 54.976562 L 143.304688 54.304688 L 141.917969 42.21875 L 141.222656 42.464844 Z M 142.613281 54.976562 "/>
<path fill-rule="nonzero" fill="rgb(100%, 86.27451%, 0%)" fill-opacity="1" d="M 103.785156 24.710938 L 103.019531 24.589844 L 114.753906 22 Z M 103.785156 24.710938 "/>
<path fill-rule="nonzero" fill="rgb(100%, 86.27451%, 0%)" fill-opacity="1" d="M 93.183594 31.710938 L 93.609375 31.644531 L 103.378906 24.457031 L 103.019531 24.589844 Z M 93.183594 31.710938 "/>
<path fill-rule="nonzero" fill="rgb(100%, 86.27451%, 0%)" fill-opacity="1" d="M 126.417969 24.496094 L 125.753906 24.625 L 114.753906 22 Z M 126.417969 24.496094 "/>
<path fill-rule="nonzero" fill="rgb(100%, 86.27451%, 0%)" fill-opacity="1" d="M 103.019531 24.589844 L 103.378906 24.457031 L 114.753906 22 Z M 103.019531 24.589844 "/>
<path fill-rule="nonzero" fill="rgb(100%, 86.27451%, 0%)" fill-opacity="1" d="M 125.097656 77.890625 L 129.703125 77.234375 L 135.917969 67.804688 L 129.804688 68.496094 Z M 125.097656 77.890625 "/>
<path fill-rule="nonzero" fill="rgb(100%, 86.27451%, 0%)" fill-opacity="1" d="M 84.910156 54.5 L 88.1875 55.164062 L 90.253906 42.535156 L 87.117188 42.289062 Z M 84.910156 54.5 "/>
<path fill-rule="nonzero" fill="rgb(100%, 86.27451%, 0%)" fill-opacity="1" d="M 141.222656 42.464844 L 141.917969 42.21875 L 136.003906 31.664062 L 135.328125 31.601562 Z M 141.222656 42.464844 "/>
<path fill-rule="nonzero" fill="rgb(100%, 86.27451%, 0%)" fill-opacity="1" d="M 125.929688 24.367188 L 126.417969 24.496094 L 114.753906 22 Z M 125.929688 24.367188 "/>
<path fill-rule="nonzero" fill="rgb(100%, 86.27451%, 0%)" fill-opacity="1" d="M 135.917969 67.804688 L 139.429688 66.921875 L 142.613281 54.976562 L 138.816406 55.597656 Z M 135.917969 67.804688 "/>
<path fill-rule="nonzero" fill="rgb(100%, 86.27451%, 0%)" fill-opacity="1" d="M 99.964844 77.445312 L 105.730469 78.027344 L 103.5625 68.644531 L 95.816406 68.027344 Z M 99.964844 77.445312 "/>
<path fill-rule="nonzero" fill="rgb(100%, 86.27451%, 0%)" fill-opacity="1" d="M 103.378906 24.457031 L 104.878906 24.332031 L 114.753906 22 Z M 103.378906 24.457031 "/>
<path fill-rule="nonzero" fill="rgb(100%, 86.27451%, 0%)" fill-opacity="1" d="M 135.328125 31.601562 L 136.003906 31.664062 L 126.417969 24.496094 L 125.929688 24.367188 Z M 135.328125 31.601562 "/>
<path fill-rule="nonzero" fill="rgb(100%, 86.27451%, 0%)" fill-opacity="1" d="M 124.292969 24.253906 L 125.929688 24.367188 L 114.753906 22 Z M 124.292969 24.253906 "/>
<path fill-rule="nonzero" fill="rgb(100%, 86.27451%, 0%)" fill-opacity="1" d="M 87.117188 42.289062 L 90.253906 42.535156 L 96.171875 31.582031 L 93.609375 31.644531 Z M 87.117188 42.289062 "/>
<path fill-rule="nonzero" fill="rgb(100%, 86.27451%, 0%)" fill-opacity="1" d="M 104.878906 24.332031 L 107.402344 24.222656 L 114.753906 22 Z M 104.878906 24.332031 "/>
<path fill-rule="nonzero" fill="rgb(100%, 86.27451%, 0%)" fill-opacity="1" d="M 90.191406 67.1875 L 95.816406 68.027344 L 94.371094 55.753906 L 88.1875 55.164062 Z M 90.191406 67.1875 "/>
<path fill-rule="nonzero" fill="rgb(100%, 86.27451%, 0%)" fill-opacity="1" d="M 93.609375 31.644531 L 96.171875 31.582031 L 104.878906 24.332031 L 103.378906 24.457031 Z M 93.609375 31.644531 "/>
<path fill-rule="nonzero" fill="rgb(100%, 86.27451%, 0%)" fill-opacity="1" d="M 119.089844 78.265625 L 125.097656 77.890625 L 129.804688 68.496094 L 121.699219 68.898438 Z M 119.089844 78.265625 "/>
<path fill-rule="nonzero" fill="rgb(100%, 86.27451%, 0%)" fill-opacity="1" d="M 121.644531 24.164062 L 124.292969 24.253906 L 114.753906 22 Z M 121.644531 24.164062 "/>
<path fill-rule="nonzero" fill="rgb(100%, 86.27451%, 0%)" fill-opacity="1" d="M 107.402344 24.222656 L 110.710938 24.148438 L 114.753906 22 Z M 107.402344 24.222656 "/>
<path fill-rule="nonzero" fill="rgb(100%, 86.27451%, 0%)" fill-opacity="1" d="M 105.730469 78.027344 L 112.367188 78.316406 L 112.5625 68.949219 L 103.5625 68.644531 Z M 105.730469 78.027344 "/>
<path fill-rule="nonzero" fill="rgb(100%, 86.27451%, 0%)" fill-opacity="1" d="M 118.246094 24.117188 L 121.644531 24.164062 L 114.753906 22 Z M 118.246094 24.117188 "/>
<path fill-rule="nonzero" fill="rgb(100%, 86.27451%, 0%)" fill-opacity="1" d="M 110.710938 24.148438 L 114.464844 24.109375 L 114.753906 22 Z M 110.710938 24.148438 "/>
<path fill-rule="nonzero" fill="rgb(100%, 86.27451%, 0%)" fill-opacity="1" d="M 114.464844 24.109375 L 118.246094 24.117188 L 114.753906 22 Z M 114.464844 24.109375 "/>
<path fill-rule="nonzero" fill="rgb(100%, 86.27451%, 0%)" fill-opacity="1" d="M 112.367188 78.316406 L 119.089844 78.265625 L 121.699219 68.898438 L 112.5625 68.949219 Z M 112.367188 78.316406 "/>
<path fill-rule="nonzero" fill="rgb(100%, 86.27451%, 0%)" fill-opacity="1" d="M 138.816406 55.597656 L 142.613281 54.976562 L 141.222656 42.464844 L 137.632812 42.691406 Z M 138.816406 55.597656 "/>
<path fill-rule="nonzero" fill="rgb(100%, 86.27451%, 0%)" fill-opacity="1" d="M 132.457031 31.539062 L 135.328125 31.601562 L 125.929688 24.367188 L 124.292969 24.253906 Z M 132.457031 31.539062 "/>
<path fill-rule="nonzero" fill="rgb(100%, 86.27451%, 0%)" fill-opacity="1" d="M 137.632812 42.691406 L 141.222656 42.464844 L 135.328125 31.601562 L 132.457031 31.539062 Z M 137.632812 42.691406 "/>
<path fill-rule="nonzero" fill="rgb(100%, 86.27451%, 0%)" fill-opacity="1" d="M 129.804688 68.496094 L 135.917969 67.804688 L 138.816406 55.597656 L 132.09375 56.082031 Z M 129.804688 68.496094 "/>
<path fill-rule="nonzero" fill="rgb(100%, 86.27451%, 0%)" fill-opacity="1" d="M 96.171875 31.582031 L 100.742188 31.527344 L 107.402344 24.222656 L 104.878906 24.332031 Z M 96.171875 31.582031 "/>
<path fill-rule="nonzero" fill="rgb(100%, 86.27451%, 0%)" fill-opacity="1" d="M 88.1875 55.164062 L 94.371094 55.753906 L 96.089844 42.75 L 90.253906 42.535156 Z M 88.1875 55.164062 "/>
<path fill-rule="nonzero" fill="rgb(100%, 86.27451%, 0%)" fill-opacity="1" d="M 95.816406 68.027344 L 103.5625 68.644531 L 102.945312 56.1875 L 94.371094 55.753906 Z M 95.816406 68.027344 "/>
<path fill-rule="nonzero" fill="rgb(100%, 86.27451%, 0%)" fill-opacity="1" d="M 90.253906 42.535156 L 96.089844 42.75 L 100.742188 31.527344 L 96.171875 31.582031 Z M 90.253906 42.535156 "/>
<path fill-rule="nonzero" fill="rgb(100%, 86.27451%, 0%)" fill-opacity="1" d="M 127.585938 31.496094 L 132.457031 31.539062 L 124.292969 24.253906 L 121.644531 24.164062 Z M 127.585938 31.496094 "/>
<path fill-rule="nonzero" fill="rgb(100%, 86.27451%, 0%)" fill-opacity="1" d="M 100.742188 31.527344 L 106.910156 31.484375 L 110.710938 24.148438 L 107.402344 24.222656 Z M 100.742188 31.527344 "/>
<path fill-rule="nonzero" fill="rgb(100%, 86.27451%, 0%)" fill-opacity="1" d="M 121.699219 68.898438 L 129.804688 68.496094 L 132.09375 56.082031 L 123.109375 56.367188 Z M 121.699219 68.898438 "/>
<path fill-rule="nonzero" fill="rgb(100%, 86.27451%, 0%)" fill-opacity="1" d="M 132.09375 56.082031 L 138.816406 55.597656 L 137.632812 42.691406 L 131.335938 42.871094 Z M 132.09375 56.082031 "/>
<path fill-rule="nonzero" fill="rgb(100%, 86.27451%, 0%)" fill-opacity="1" d="M 121.191406 31.46875 L 127.585938 31.496094 L 121.644531 24.164062 L 118.246094 24.117188 Z M 121.191406 31.46875 "/>
<path fill-rule="nonzero" fill="rgb(100%, 86.27451%, 0%)" fill-opacity="1" d="M 103.5625 68.644531 L 112.5625 68.949219 L 112.949219 56.40625 L 102.945312 56.1875 Z M 103.5625 68.644531 "/>
<path fill-rule="nonzero" fill="rgb(100%, 86.27451%, 0%)" fill-opacity="1" d="M 106.910156 31.484375 L 114.007812 31.464844 L 114.464844 24.109375 L 110.710938 24.148438 Z M 106.910156 31.484375 "/>
<path fill-rule="nonzero" fill="rgb(100%, 86.27451%, 0%)" fill-opacity="1" d="M 131.335938 42.871094 L 137.632812 42.691406 L 132.457031 31.539062 L 127.585938 31.496094 Z M 131.335938 42.871094 "/>
<path fill-rule="nonzero" fill="rgb(100%, 86.27451%, 0%)" fill-opacity="1" d="M 114.007812 31.464844 L 121.191406 31.46875 L 118.246094 24.117188 L 114.464844 24.109375 Z M 114.007812 31.464844 "/>
<path fill-rule="nonzero" fill="rgb(100%, 86.27451%, 0%)" fill-opacity="1" d="M 94.371094 55.753906 L 102.945312 56.1875 L 104.125 42.910156 L 96.089844 42.75 Z M 94.371094 55.753906 "/>
<path fill-rule="nonzero" fill="rgb(100%, 86.27451%, 0%)" fill-opacity="1" d="M 112.5625 68.949219 L 121.699219 68.898438 L 123.109375 56.367188 L 112.949219 56.40625 Z M 112.5625 68.949219 "/>
<path fill-rule="nonzero" fill="rgb(100%, 86.27451%, 0%)" fill-opacity="1" d="M 96.089844 42.75 L 104.125 42.910156 L 106.910156 31.484375 L 100.742188 31.527344 Z M 96.089844 42.75 "/>
<path fill-rule="nonzero" fill="rgb(100%, 86.27451%, 0%)" fill-opacity="1" d="M 123.109375 56.367188 L 132.09375 56.082031 L 131.335938 42.871094 L 122.941406 42.976562 Z M 123.109375 56.367188 "/>
<path fill-rule="nonzero" fill="rgb(100%, 86.27451%, 0%)" fill-opacity="1" d="M 122.941406 42.976562 L 131.335938 42.871094 L 127.585938 31.496094 L 121.191406 31.46875 Z M 122.941406 42.976562 "/>
<path fill-rule="nonzero" fill="rgb(100%, 86.27451%, 0%)" fill-opacity="1" d="M 102.945312 56.1875 L 112.949219 56.40625 L 113.46875 42.988281 L 104.125 42.910156 Z M 102.945312 56.1875 "/>
<path fill-rule="nonzero" fill="rgb(100%, 86.27451%, 0%)" fill-opacity="1" d="M 104.125 42.910156 L 113.46875 42.988281 L 114.007812 31.464844 L 106.910156 31.484375 Z M 104.125 42.910156 "/>
<path fill-rule="nonzero" fill="rgb(100%, 86.27451%, 0%)" fill-opacity="1" d="M 113.46875 42.988281 L 122.941406 42.976562 L 121.191406 31.46875 L 114.007812 31.464844 Z M 113.46875 42.988281 "/>
<path fill-rule="nonzero" fill="rgb(100%, 86.27451%, 0%)" fill-opacity="1" d="M 112.949219 56.40625 L 123.109375 56.367188 L 122.941406 42.976562 L 113.46875 42.988281 Z M 112.949219 56.40625 "/>
</svg>
